<?xml version="1.0" encoding="iso-8859-1"?>
<!-- Generator: Adobe Illustrator 19.0.0, SVG Export Plug-In . SVG Version: 6.00 Build 0)  -->
<svg version="1.1" id="Capa_1" xmlns="http://www.w3.org/2000/svg" xmlns:xlink="http://www.w3.org/1999/xlink" x="0px" y="0px"
	 viewBox="0 0 512 512" style="enable-background:new 0 0 512 512;" xml:space="preserve">
<g>
	<path style="fill:#CE8570;" d="M451.352,310.652H60.648c-11.009,0-19.934,8.925-19.934,19.934v160.8h430.572v-160.8
		C471.286,319.577,462.361,310.652,451.352,310.652z"/>
	<path style="fill:#CE8570;" d="M424.275,310.652H87.725v-108.64c0-11.009,8.925-19.934,19.934-19.934h296.683
		c11.009,0,19.934,8.925,19.934,19.934v108.64H424.275z"/>
</g>
<g>
	<path style="fill:#F4DAAB;" d="M451.352,310.652H60.648c-11.009,0-19.934,8.925-19.934,19.934v43.855
		c35.88,0,35.88,23.921,71.76,23.921c35.879,0,35.879-23.921,71.757-23.921c35.88,0,35.88,23.921,71.76,23.921
		c35.881,0,35.881-23.921,71.763-23.921c35.883,0,35.883,23.921,71.766,23.921s35.883-23.921,71.766-23.921v-43.855
		C471.286,319.577,462.361,310.652,451.352,310.652z"/>
	<path style="fill:#F4DAAB;" d="M424.275,202.011c0-11.009-8.925-19.934-19.934-19.934H107.659
		c-11.009,0-19.934,8.925-19.934,19.934v38.14c6.285,3.069,13.861,5.277,24.749,5.277c35.879,0,35.879-23.921,71.757-23.921
		c35.88,0,35.88,23.921,71.76,23.921c35.881,0,35.881-23.921,71.763-23.921c35.883,0,35.883,23.921,71.766,23.921
		c10.892,0,18.469-2.21,24.755-5.279V202.011z"/>
</g>
<path d="M177.26,320.65c-0.65,0-1.31-0.06-1.95-0.19s-1.27-0.32-1.87-0.57c-0.61-0.25-1.19-0.56-1.73-0.92
	c-0.55-0.37-1.06-0.79-1.52-1.25s-0.88-0.97-1.24-1.52c-0.36-0.54-0.67-1.12-0.92-1.72c-0.25-0.61-0.44-1.24-0.57-1.87
	c-0.13-0.65-0.2-1.31-0.2-1.96s0.07-1.31,0.2-1.95c0.13-0.64,0.32-1.27,0.57-1.87c0.25-0.61,0.56-1.19,0.92-1.73
	c0.36-0.55,0.78-1.06,1.24-1.52s0.97-0.88,1.52-1.24c0.54-0.36,1.12-0.67,1.73-0.92c0.6-0.25,1.23-0.44,1.87-0.57
	c3.25-0.66,6.7,0.41,9.02,2.73c0.46,0.46,0.88,0.97,1.25,1.52c0.36,0.54,0.67,1.12,0.92,1.73c0.25,0.6,0.44,1.23,0.57,1.87
	c0.13,0.64,0.19,1.3,0.19,1.95s-0.06,1.31-0.19,1.96c-0.13,0.63-0.32,1.26-0.57,1.87c-0.25,0.6-0.56,1.18-0.92,1.72
	c-0.37,0.55-0.79,1.06-1.25,1.52C182.47,319.579,179.89,320.65,177.26,320.65z"/>
<g>
	<path style="fill:#E2A546;" d="M169.996,125.348L169.996,125.348c-11.951,11.951-31.327,11.951-43.279,0l0,0
		c-9.273-9.273-11.607-23.424-5.802-35.184l27.442-55.596l27.442,55.596C181.603,101.924,179.27,116.075,169.996,125.348z"/>
	<path style="fill:#E2A546;" d="M277.639,111.395L277.639,111.395c-11.951,11.951-31.327,11.951-43.279,0l0,0
		c-9.273-9.273-11.607-23.424-5.802-35.184L256,20.614l27.442,55.596C289.246,87.97,286.913,102.121,277.639,111.395z"/>
	<path style="fill:#E2A546;" d="M385.282,125.348L385.282,125.348c-11.951,11.951-31.327,11.951-43.279,0l0,0
		c-9.273-9.273-11.607-23.424-5.802-35.184l27.442-55.596l27.442,55.596C396.889,101.924,394.556,116.075,385.282,125.348z"/>
</g>
<path d="M502,481.385h-20.714V374.44v-43.854c0-16.506-13.428-29.934-29.934-29.934h-17.077v-60.502v-38.138
	c0-16.505-13.428-29.934-29.934-29.934h-30.698v-29.034c6.86-1.732,13.354-5.269,18.71-10.625
	c12.311-12.31,15.405-31.069,7.699-46.682L372.61,30.142c-1.685-3.413-5.161-5.574-8.967-5.574s-7.282,2.161-8.967,5.574
	l-27.442,55.596c-7.706,15.611-4.612,34.371,7.699,46.682c5.356,5.356,11.85,8.893,18.71,10.625v29.034H266V129.09
	c6.86-1.732,13.354-5.269,18.71-10.625c12.311-12.31,15.404-31.069,7.699-46.682l-27.442-55.596
	c-1.685-3.413-5.161-5.574-8.967-5.574s-7.282,2.161-8.967,5.574l-27.442,55.597c-7.705,15.612-4.611,34.371,7.699,46.681
	c5.356,5.356,11.85,8.893,18.71,10.625v42.988h-87.643v-29.003c7.02-1.77,13.458-5.404,18.71-10.656
	c12.311-12.31,15.405-31.07,7.699-46.682l-27.442-55.596c-1.685-3.413-5.161-5.574-8.967-5.574s-7.282,2.161-8.967,5.574
	l-27.442,55.597c-7.705,15.611-4.611,34.371,7.699,46.682c5.252,5.252,11.69,8.886,18.71,10.656v29.003h-30.698
	c-16.506,0-29.934,13.428-29.934,29.934v38.14v60.5H60.648c-16.506,0-29.934,13.428-29.934,29.934v43.854v106.945H10
	c-5.523,0-10,4.477-10,10s4.477,10,10,10h30.714h430.572H502c5.523,0,10-4.477,10-10S507.523,481.385,502,481.385z M349.075,118.277
	c-6.247-6.246-7.816-15.765-3.906-23.687l18.475-37.429l18.475,37.429c3.91,7.922,2.34,17.441-3.906,23.687l0,0
	c-1.387,1.387-2.932,2.518-4.568,3.426c-6.201,3.442-13.799,3.442-20,0C352.007,120.795,350.462,119.664,349.075,118.277z
	 M241.432,104.323c-6.246-6.246-7.816-15.765-3.906-23.687L256,43.208l18.475,37.429c3.91,7.922,2.34,17.441-3.906,23.687l0,0
	c-1.387,1.387-2.932,2.518-4.568,3.426c-6.2,3.442-13.799,3.442-20,0C244.364,106.841,242.819,105.711,241.432,104.323z
	 M133.789,118.277c-6.247-6.246-7.816-15.765-3.906-23.687l18.475-37.429l18.475,37.429c3.91,7.921,2.34,17.44-3.906,23.687l0,0
	c-1.387,1.387-2.932,2.518-4.568,3.426c-6.2,3.442-13.799,3.442-20,0C136.721,120.795,135.176,119.664,133.789,118.277z
	 M97.725,202.011c0-5.478,4.457-9.934,9.934-9.934h296.683c5.478,0,9.934,4.456,9.934,9.934v31.396
	c-4.406,1.384-9.153,2.021-14.755,2.021c-14.914,0-21.72-4.537-30.336-10.281c-9.591-6.394-20.461-13.64-41.43-13.64
	c-20.968,0-31.838,7.246-41.428,13.64c-8.616,5.744-15.421,10.281-30.334,10.281c-14.913,0-21.718-4.537-30.333-10.281
	c-9.59-6.393-20.459-13.64-41.427-13.64c-20.967,0-31.836,7.247-41.426,13.64c-8.615,5.744-15.42,10.281-30.331,10.281
	c-5.6,0-10.345-0.638-14.75-2.02v-31.397H97.725z M461.286,481.385H50.714v-96.109c8.502,1.564,13.918,5.168,20.333,9.445
	c9.59,6.394,20.459,13.64,41.428,13.64c20.967,0,31.836-7.247,41.426-13.64c8.615-5.744,15.42-10.281,30.331-10.281
	c14.912,0,21.718,4.537,30.333,10.281c9.59,6.394,20.459,13.64,41.427,13.64c20.969,0,31.838-7.247,41.428-13.64
	c8.616-5.744,15.421-10.281,30.334-10.281c14.914,0,21.72,4.537,30.336,10.281c9.591,6.393,20.46,13.64,41.43,13.64
	c20.969,0,31.839-7.247,41.43-13.64c6.416-4.277,11.833-7.882,20.336-9.446V481.385z M461.286,365.046
	c-14.683,1.87-23.495,7.744-31.43,13.034c-8.616,5.744-15.422,10.281-30.336,10.281s-21.719-4.537-30.336-10.281
	c-9.591-6.393-20.461-13.64-41.43-13.64c-20.968,0-31.838,7.247-41.428,13.64c-8.616,5.744-15.421,10.281-30.334,10.281
	c-14.913,0-21.718-4.537-30.333-10.281c-9.59-6.394-20.459-13.64-41.428-13.64c-20.967,0-31.836,7.247-41.426,13.64
	c-8.615,5.744-15.42,10.281-30.331,10.281c-14.913,0-21.718-4.537-30.333-10.281c-7.935-5.29-16.745-11.164-31.427-13.034v-34.46
	c0-5.478,4.457-9.934,9.934-9.934h76.745c5.523,0,10-4.477,10-10s-4.477-10-10-10H97.725V254.02c4.602,0.941,9.464,1.41,14.75,1.41
	c20.967,0,31.836-7.247,41.426-13.64c8.615-5.744,15.42-10.281,30.331-10.281c14.913,0,21.718,4.537,30.333,10.281
	c9.59,6.393,20.459,13.64,41.427,13.64s31.838-7.247,41.428-13.64c8.616-5.744,15.421-10.281,30.334-10.281
	c14.914,0,21.72,4.537,30.336,10.281c9.591,6.394,20.461,13.64,41.43,13.64c5.288,0,10.152-0.47,14.755-1.411v46.633H217.129
	c-5.523,0-10,4.477-10,10s4.477,10,10,10h234.223c5.478,0,9.934,4.457,9.934,9.934L461.286,365.046L461.286,365.046z"/>
<path d="M87.73,468.5c-2.64,0-5.22-1.07-7.08-2.93c-0.46-0.47-0.88-0.98-1.24-1.52c-0.36-0.55-0.67-1.13-0.92-1.73
	s-0.44-1.23-0.57-1.87c-0.13-0.65-0.19-1.3-0.19-1.95c0-0.66,0.06-1.31,0.19-1.96c0.13-0.64,0.32-1.27,0.57-1.87
	s0.56-1.18,0.92-1.73c0.36-0.54,0.78-1.05,1.24-1.52c2.33-2.32,5.78-3.38,9.03-2.73c0.64,0.13,1.27,0.32,1.87,0.57
	s1.18,0.56,1.72,0.92c0.55,0.37,1.06,0.78,1.52,1.24c0.47,0.47,0.88,0.98,1.25,1.52c0.36,0.55,0.67,1.13,0.92,1.73
	s0.44,1.23,0.57,1.87c0.13,0.65,0.2,1.3,0.2,1.96c0,0.65-0.07,1.3-0.2,1.95c-0.13,0.64-0.32,1.27-0.57,1.87s-0.56,1.18-0.92,1.73
	c-0.37,0.54-0.78,1.05-1.25,1.52c-0.46,0.46-0.97,0.87-1.52,1.24c-0.54,0.36-1.12,0.67-1.72,0.92s-1.23,0.44-1.87,0.57
	C89.03,468.43,88.38,468.5,87.73,468.5z"/>
<path d="M195.2,438.6c-0.65,0-1.31-0.07-1.95-0.2s-1.27-0.32-1.87-0.57c-0.61-0.25-1.19-0.56-1.73-0.92
	c-0.55-0.37-1.06-0.78-1.52-1.24s-0.88-0.98-1.24-1.52c-0.36-0.55-0.67-1.13-0.92-1.73s-0.44-1.23-0.57-1.87
	c-0.13-0.65-0.2-1.3-0.2-1.96c0-0.65,0.07-1.3,0.2-1.95c0.13-0.64,0.32-1.27,0.57-1.87s0.56-1.18,0.92-1.73
	c0.36-0.54,0.78-1.06,1.24-1.52s0.97-0.88,1.52-1.24c0.54-0.36,1.12-0.67,1.73-0.92c0.6-0.25,1.23-0.44,1.87-0.57
	c1.29-0.26,2.62-0.26,3.91,0c0.63,0.13,1.26,0.32,1.87,0.57c0.6,0.25,1.18,0.56,1.72,0.92c0.55,0.36,1.06,0.78,1.52,1.24
	s0.88,0.98,1.25,1.52c0.36,0.55,0.67,1.13,0.92,1.73s0.44,1.23,0.57,1.87c0.13,0.65,0.19,1.3,0.19,1.95c0,0.66-0.06,1.31-0.19,1.96
	c-0.13,0.64-0.32,1.27-0.57,1.87s-0.56,1.18-0.92,1.73c-0.37,0.54-0.79,1.06-1.25,1.52s-0.97,0.87-1.52,1.24
	c-0.54,0.36-1.12,0.67-1.72,0.92c-0.61,0.25-1.24,0.44-1.87,0.57C196.51,438.53,195.85,438.6,195.2,438.6z"/>
<path d="M310.82,468.5c-0.65,0-1.31-0.07-1.96-0.2c-0.63-0.13-1.26-0.32-1.87-0.57c-0.6-0.25-1.18-0.56-1.72-0.92
	c-0.55-0.36-1.06-0.78-1.52-1.24s-0.88-0.98-1.25-1.52c-0.36-0.55-0.67-1.13-0.92-1.73s-0.44-1.23-0.57-1.87
	c-0.13-0.65-0.19-1.3-0.19-1.95c0-0.66,0.06-1.31,0.19-1.96c0.13-0.64,0.32-1.27,0.57-1.87s0.56-1.18,0.92-1.73
	c0.37-0.54,0.79-1.05,1.25-1.52c0.46-0.46,0.97-0.87,1.52-1.24c0.54-0.36,1.12-0.67,1.72-0.92c0.61-0.25,1.24-0.44,1.87-0.57
	c1.29-0.26,2.62-0.26,3.91,0c0.64,0.13,1.27,0.32,1.87,0.57c0.61,0.25,1.19,0.56,1.73,0.92c0.55,0.37,1.06,0.78,1.52,1.24
	c0.46,0.47,0.88,0.98,1.24,1.52c0.36,0.55,0.67,1.13,0.92,1.73s0.44,1.23,0.57,1.87c0.13,0.65,0.2,1.3,0.2,1.96
	c0,0.65-0.07,1.3-0.2,1.95c-0.13,0.64-0.32,1.27-0.57,1.87s-0.56,1.18-0.92,1.73c-0.36,0.54-0.78,1.06-1.24,1.52
	C316.03,467.43,313.45,468.5,310.82,468.5z"/>
<path d="M424.28,444.57c-0.66,0-1.31-0.06-1.96-0.19c-0.64-0.13-1.27-0.32-1.87-0.57s-1.18-0.56-1.73-0.92
	c-0.54-0.37-1.05-0.78-1.52-1.24c-0.46-0.47-0.87-0.98-1.24-1.53c-0.36-0.54-0.67-1.12-0.92-1.72s-0.44-1.23-0.57-1.87
	c-0.13-0.65-0.19-1.3-0.19-1.96c0-0.65,0.06-1.31,0.19-1.95s0.32-1.27,0.57-1.87s0.56-1.19,0.92-1.73c0.37-0.54,0.78-1.06,1.24-1.52
	c1.87-1.86,4.44-2.93,7.08-2.93c2.63,0,5.2,1.07,7.07,2.93c0.46,0.46,0.88,0.98,1.24,1.52s0.67,1.13,0.92,1.73s0.44,1.23,0.57,1.87
	c0.13,0.64,0.2,1.3,0.2,1.95c0,0.66-0.07,1.31-0.2,1.96c-0.13,0.64-0.32,1.26-0.57,1.87c-0.25,0.6-0.56,1.18-0.92,1.72
	c-0.36,0.55-0.78,1.06-1.24,1.53C429.49,443.51,426.91,444.57,424.28,444.57z"/>
<path d="M324.77,281.12c-0.65,0-1.31-0.07-1.95-0.2s-1.27-0.32-1.87-0.57c-0.61-0.25-1.19-0.56-1.73-0.92
	c-0.55-0.36-1.06-0.78-1.52-1.24s-0.88-0.97-1.24-1.52c-0.36-0.54-0.67-1.13-0.92-1.73s-0.44-1.23-0.57-1.87s-0.2-1.3-0.2-1.95
	c0-0.65,0.07-1.31,0.2-1.96c0.13-0.63,0.32-1.26,0.57-1.87c0.25-0.6,0.56-1.18,0.92-1.72c0.36-0.55,0.78-1.06,1.24-1.52
	c0.46-0.47,0.97-0.88,1.52-1.25c0.54-0.36,1.12-0.67,1.73-0.92c0.6-0.25,1.23-0.44,1.87-0.57c1.29-0.26,2.62-0.26,3.91,0
	c0.63,0.13,1.26,0.32,1.87,0.57c0.6,0.25,1.18,0.56,1.72,0.92c0.55,0.37,1.06,0.78,1.52,1.25c0.46,0.46,0.88,0.97,1.25,1.52
	c0.36,0.54,0.67,1.12,0.92,1.72c0.25,0.61,0.44,1.24,0.57,1.87c0.13,0.65,0.19,1.31,0.19,1.96s-0.06,1.31-0.19,1.95
	s-0.32,1.27-0.57,1.87s-0.56,1.19-0.92,1.73c-0.37,0.55-0.79,1.06-1.25,1.52s-0.97,0.88-1.52,1.24c-0.54,0.36-1.12,0.67-1.72,0.92
	c-0.61,0.25-1.24,0.44-1.87,0.57C326.08,281.049,325.42,281.12,324.77,281.12z"/>
<path d="M194.21,267.5c-0.66,0-1.31-0.07-1.96-0.2c-0.64-0.13-1.27-0.32-1.87-0.57s-1.18-0.56-1.73-0.92
	c-0.54-0.37-1.05-0.78-1.52-1.24c-0.46-0.47-0.87-0.98-1.24-1.52c-0.36-0.55-0.67-1.13-0.92-1.73s-0.44-1.23-0.57-1.87
	c-0.13-0.65-0.19-1.3-0.19-1.95c0-0.66,0.06-1.31,0.19-1.96c0.13-0.64,0.32-1.27,0.57-1.87s0.56-1.18,0.92-1.73
	c0.37-0.54,0.78-1.06,1.24-1.52c0.47-0.46,0.98-0.88,1.52-1.24c0.55-0.36,1.13-0.67,1.73-0.92s1.23-0.44,1.87-0.57
	c1.29-0.26,2.62-0.26,3.91,0c0.64,0.13,1.27,0.32,1.87,0.57s1.18,0.56,1.73,0.92c0.54,0.36,1.06,0.78,1.52,1.24s0.88,0.98,1.24,1.52
	c0.36,0.55,0.67,1.13,0.92,1.73s0.44,1.23,0.57,1.87c0.13,0.65,0.19,1.3,0.19,1.96c0,0.65-0.06,1.3-0.19,1.95
	c-0.13,0.64-0.32,1.27-0.57,1.87s-0.56,1.18-0.92,1.73c-0.37,0.54-0.78,1.05-1.24,1.52c-0.46,0.46-0.98,0.87-1.52,1.24
	c-0.55,0.36-1.13,0.67-1.73,0.92s-1.23,0.44-1.87,0.57S194.86,267.5,194.21,267.5z"/>
<g>
</g>
<g>
</g>
<g>
</g>
<g>
</g>
<g>
</g>
<g>
</g>
<g>
</g>
<g>
</g>
<g>
</g>
<g>
</g>
<g>
</g>
<g>
</g>
<g>
</g>
<g>
</g>
<g>
</g>
</svg>
