<svg id="Capa_1" enable-background="new 0 0 512 512" height="512" viewBox="0 0 512 512" width="512" xmlns="http://www.w3.org/2000/svg"><g><path d="m505.52 389.65c-33.822-12.717-67.642-25.438-101.463-38.158l-86.505-32.534 58.029-93.327c27.39-44.05 28.697-97.416 3.5-142.755-25.199-45.338-71.21-72.407-123.081-72.407s-97.882 27.068-123.08 72.407c-25.197 45.339-23.89 98.705 3.5 142.755l58.029 93.327-64.041 24.085c-41.153 15.479-82.867 31.168-123.927 46.607-3.899 1.467-6.481 5.195-6.481 9.36s2.581 7.894 6.479 9.36l246 92.52c1.135.427 2.328.64 3.52.64s2.386-.213 3.521-.64l111.924-42.094c5.169-1.944 7.783-7.711 5.84-12.88-1.945-5.169-7.71-7.787-12.881-5.84l-108.403 40.771-217.591-81.835c32.959-12.395 66.177-24.888 99.04-37.248l67.768-25.487 42.291 68.016c1.825 2.935 5.036 4.72 8.492 4.72s6.667-1.785 8.492-4.72l42.291-68.016 90.232 33.935c25.524 9.6 51.05 19.201 76.575 28.8l-30.59 11.505c-5.169 1.944-7.783 7.711-5.84 12.88 1.509 4.01 5.316 6.483 9.362 6.483 1.169 0 2.359-.207 3.518-.643l55.48-20.866c3.898-1.466 6.479-5.195 6.479-9.36.001-4.166-2.581-7.894-6.479-9.361zm-249.52-9.576-102.596-165.003c-23.499-37.793-24.621-83.58-3.003-122.479 21.619-38.899 61.095-62.123 105.599-62.123s83.979 23.224 105.599 62.123c21.618 38.899 20.496 84.686-3.003 122.479z"/><circle cx="407.247" cy="434.647" r="10"/><path d="m256 75.979c-41.636 0-75.51 33.874-75.51 75.509 0 41.636 33.874 75.51 75.51 75.51s75.51-33.874 75.51-75.51-33.874-75.509-75.51-75.509zm0 131.019c-30.608 0-55.51-24.901-55.51-55.51 0-2.748.208-5.448.596-8.091 18.301.018 36.239 3.195 53.426 9.482 17.866 6.537 34.05 16.115 48.217 28.512-9.879 15.385-27.127 25.607-46.729 25.607zm54.527-45.16c-14.701-11.853-31.168-21.165-49.143-27.741-17.212-6.297-35.089-9.821-53.32-10.549 9.639-16.473 27.51-27.569 47.935-27.569 30.608 0 55.51 24.901 55.51 55.509.001 3.538-.346 6.995-.982 10.35z"/></g></svg>