<svg width="80" height="80" viewBox="0 0 80 80" fill="none" xmlns="http://www.w3.org/2000/svg">
<path opacity="0.354986" fill-rule="evenodd" clip-rule="evenodd" d="M40 80C62.0914 80 80 62.0914 80 40C80 17.9086 62.0914 0 40 0C17.9086 0 0 17.9086 0 40C0 62.0914 17.9086 80 40 80Z" fill="white"/>
<path fill-rule="evenodd" clip-rule="evenodd" d="M40 74C58.7777 74 74 58.7777 74 40C74 21.2223 58.7777 6 40 6C21.2223 6 6 21.2223 6 40C6 58.7777 21.2223 74 40 74Z" fill="white"/>
<path fill-rule="evenodd" clip-rule="evenodd" d="M36.7071 35.7071C36.3166 36.0976 35.6834 36.0976 35.2929 35.7071C34.9024 35.3166 34.9024 34.6834 35.2929 34.2929L39.2929 30.2929C39.6834 29.9024 40.3166 29.9024 40.7071 30.2929L44.7071 34.2929C45.0976 34.6834 45.0976 35.3166 44.7071 35.7071C44.3166 36.0976 43.6834 36.0976 43.2929 35.7071L41 33.4142V38H39V33.4142L36.7071 35.7071ZM39 38H36C34.3432 38 33 39.3431 33 41V47C33 48.6569 34.3432 50 36 50H44C45.6569 50 47 48.6569 47 47V41C47 39.3431 45.6569 38 44 38H41V43C41 43.5523 40.5523 44 40 44C39.4477 44 39 43.5523 39 43V38Z" fill="#3ED598"/>
</svg>
