<svg width="347" height="28" viewBox="0 0 347 28" fill="none" xmlns="http://www.w3.org/2000/svg">
<g clip-path="url(#clip0)">
<path d="M67.5897 6.27472H59.8623V3.83154H78.0041V6.27472H70.2767V24.424H67.5897V6.27472Z" fill="white"/>
<path d="M84.2497 21.8212C83.2427 20.9001 82.4439 19.8046 81.853 18.5345C81.2721 17.2645 80.9814 15.9847 80.9814 14.6952C80.9814 13.4058 81.1121 12.2909 81.3738 11.3504C81.6448 10.4003 82.0274 9.52774 82.5211 8.73273C83.0151 7.92804 83.6057 7.20577 84.2932 6.56588C84.9809 5.926 85.7456 5.38306 86.5882 4.93709C88.3506 4.00636 90.2726 3.54102 92.3546 3.54102C94.3494 3.54102 96.2086 3.98699 97.9324 4.87893C99.6076 5.7515 100.944 6.96339 101.941 8.51459C102.958 10.1337 103.466 11.9321 103.466 13.9099C103.466 17.0415 102.363 19.6349 100.155 21.6903C98.7698 22.9797 97.0995 23.8669 95.1437 24.3516C94.1656 24.594 93.0324 24.7152 91.7447 24.7152C90.4567 24.7152 89.1397 24.4631 87.7938 23.959C86.4479 23.4451 85.2664 22.7325 84.2497 21.8212ZM86.2397 8.22374C85.494 8.9315 84.9034 9.77011 84.4676 10.7396C84.0415 11.7092 83.8284 12.7756 83.8284 13.939C83.8284 15.1024 84.0511 16.1932 84.4966 17.2111C84.942 18.2291 85.5522 19.1162 86.3269 19.8724C87.9827 21.4915 89.992 22.3011 92.3546 22.3011C94.6496 22.3011 96.5961 21.5449 98.1937 20.0324C99.811 18.5006 100.619 16.6052 100.619 14.3462C100.619 12.8144 100.232 11.394 99.4576 10.0852C98.7312 8.84425 97.7097 7.84565 96.3927 7.08942C95.0951 6.33319 93.7684 5.9551 92.4129 5.9551C91.0573 5.9551 89.8758 6.15869 88.8688 6.56588C87.8714 6.96339 86.995 7.51602 86.2397 8.22374Z" fill="white"/>
<path d="M109.625 3.84619H110.424L119.502 13.8079L128.566 3.84619H129.423L131.166 24.4241H128.537L127.215 8.93614L119.531 17.4582H119.241L111.789 9.067L110.627 24.4241H108.027L109.625 3.84619Z" fill="white"/>
<path d="M139.009 21.8212C138.002 20.9001 137.204 19.8046 136.613 18.5345C136.032 17.2645 135.741 15.9847 135.741 14.6952C135.741 13.4058 135.872 12.2909 136.134 11.3504C136.405 10.4003 136.787 9.52774 137.281 8.73273C137.775 7.92804 138.365 7.20577 139.053 6.56588C139.741 5.926 140.505 5.38306 141.348 4.93709C143.11 4.00636 145.032 3.54102 147.114 3.54102C149.109 3.54102 150.968 3.98699 152.692 4.87893C154.367 5.7515 155.704 6.96339 156.701 8.51459C157.718 10.1337 158.226 11.9321 158.226 13.9099C158.226 17.0415 157.122 19.6349 154.914 21.6903C153.53 22.9797 151.859 23.8669 149.903 24.3516C148.925 24.594 147.792 24.7152 146.504 24.7152C145.216 24.7152 143.9 24.4631 142.554 23.959C141.208 23.4451 140.026 22.7325 139.009 21.8212ZM140.999 8.22374C140.254 8.9315 139.663 9.77011 139.227 10.7396C138.801 11.7092 138.588 12.7756 138.588 13.939C138.588 15.1024 138.811 16.1932 139.256 17.2111C139.702 18.2291 140.312 19.1162 141.087 19.8724C142.743 21.4915 144.752 22.3011 147.114 22.3011C149.409 22.3011 151.356 21.5449 152.953 20.0324C154.571 18.5006 155.379 16.6052 155.379 14.3462C155.379 12.8144 154.992 11.394 154.217 10.0852C153.491 8.84425 152.469 7.84565 151.152 7.08942C149.855 6.33319 148.528 5.9551 147.173 5.9551C145.817 5.9551 144.636 6.15869 143.629 6.56588C142.631 6.96339 141.755 7.51602 140.999 8.22374Z" fill="white"/>
<path d="M180.885 10.1722C180.885 13.2261 179.481 15.3348 176.673 16.4982L180.58 24.424H177.457L173.928 17.2545C172.969 17.3999 171.967 17.4726 170.921 17.4726H165.576V24.424H162.889V3.83154H171.328C174.368 3.83154 176.639 4.24842 178.14 5.08221C179.97 6.0905 180.885 7.78714 180.885 10.1722ZM171.284 15.0294C173.453 15.0294 175.061 14.7289 176.107 14.1278C177.395 13.3812 178.038 12.1209 178.038 10.3467C178.038 8.03924 176.547 6.73038 173.565 6.42013C172.703 6.32319 171.817 6.27472 170.907 6.27472H165.576V15.0294H171.284Z" fill="white"/>
<path d="M203.399 10.1722C203.399 13.2261 201.995 15.3348 199.187 16.4982L203.094 24.424H199.972L196.442 17.2545C195.483 17.3999 194.481 17.4726 193.435 17.4726H188.09V24.424H185.403V3.83154H193.842C196.883 3.83154 199.153 4.24842 200.654 5.08221C202.484 6.0905 203.399 7.78714 203.399 10.1722ZM193.798 15.0294C195.968 15.0294 197.575 14.7289 198.621 14.1278C199.908 13.3812 200.552 12.1209 200.552 10.3467C200.552 8.03924 199.061 6.73038 196.079 6.42013C195.217 6.32319 194.331 6.27472 193.421 6.27472H188.09V15.0294H193.798Z" fill="white"/>
<path d="M210.502 21.8212C209.495 20.9001 208.696 19.8046 208.105 18.5345C207.524 17.2645 207.234 15.9847 207.234 14.6952C207.234 13.4058 207.365 12.2909 207.626 11.3504C207.897 10.4003 208.28 9.52774 208.774 8.73273C209.267 7.92804 209.858 7.20577 210.546 6.56588C211.233 5.926 211.998 5.38306 212.841 4.93709C214.603 4.00636 216.525 3.54102 218.607 3.54102C220.602 3.54102 222.461 3.98699 224.184 4.87893C225.86 5.7515 227.196 6.96339 228.194 8.51459C229.21 10.1337 229.719 11.9321 229.719 13.9099C229.719 17.0415 228.615 19.6349 226.407 21.6903C225.022 22.9797 223.352 23.8669 221.396 24.3516C220.418 24.594 219.285 24.7152 217.997 24.7152C216.709 24.7152 215.392 24.4631 214.046 23.959C212.7 23.4451 211.519 22.7325 210.502 21.8212ZM212.492 8.22374C211.746 8.9315 211.155 9.77011 210.72 10.7396C210.294 11.7092 210.081 12.7756 210.081 13.939C210.081 15.1024 210.304 16.1932 210.749 17.2111C211.194 18.2291 211.804 19.1162 212.579 19.8724C214.235 21.4915 216.244 22.3011 218.607 22.3011C220.902 22.3011 222.848 21.5449 224.446 20.0324C226.063 18.5006 226.872 16.6052 226.872 14.3462C226.872 12.8144 226.484 11.394 225.71 10.0852C224.984 8.84425 223.962 7.84565 222.645 7.08942C221.347 6.33319 220.021 5.9551 218.665 5.9551C217.309 5.9551 216.128 6.15869 215.121 6.56588C214.123 6.96339 213.247 7.51602 212.492 8.22374Z" fill="white"/>
<path d="M232.391 3.83154H235.514C238.535 11.3453 240.133 15.3251 240.307 15.7711C240.704 16.857 240.966 17.5938 241.092 17.9816C241.092 17.9816 241.213 18.3258 241.455 19.0141H241.585C241.711 18.5584 241.847 18.0931 241.992 17.618C241.992 17.618 242.157 17.1042 242.486 16.0765C242.67 15.5142 242.873 14.9276 243.096 14.3168L246.858 3.83154H247.686L251.564 14.0987L253.235 19.0141H253.365L254.397 15.6984C254.581 15.1167 254.769 14.5689 254.963 14.0551L258.667 3.83154H261.79L253.685 24.7148H252.857L248.441 13.0516C248.315 12.7414 248.19 12.3875 248.064 11.99L247.279 9.59044H247.192L246.814 10.8556C246.708 11.2144 246.592 11.5876 246.466 11.9755L241.905 24.7148H241.077L232.391 3.83154Z" fill="white"/>
<path d="M264.942 3.57593H274.401C276.662 3.57593 278.655 4.01276 280.381 4.88639C282.126 5.7402 283.474 6.95138 284.426 8.51999C285.398 10.0886 285.884 11.9153 285.884 14.0001C285.884 16.085 285.398 17.9117 284.426 19.4803C283.474 21.0489 282.126 22.27 280.381 23.1436C278.655 23.9975 276.662 24.4243 274.401 24.4243H264.942V3.57593ZM274.164 20.4631C276.246 20.4631 277.902 19.8873 279.131 18.7357C280.381 17.5642 281.006 15.9857 281.006 14.0001C281.006 12.0146 280.381 10.446 279.131 9.29436C277.902 8.12287 276.246 7.53712 274.164 7.53712H269.761V20.4631H274.164Z" fill="white"/>
<path d="M305.642 20.5525V24.4243H289.519V3.57593H305.255V7.44778H294.308V11.9749H303.976V15.7276H294.308V20.5525H305.642Z" fill="white"/>
<path d="M329.206 3.57593L320.191 24.4243H315.432L306.448 3.57593H311.654L317.99 18.4676L324.417 3.57593H329.206Z" fill="white"/>
<path d="M337.786 24.7817C336.138 24.7817 334.542 24.5633 332.997 24.1265C331.468 23.6698 330.239 23.0841 329.309 22.3693L330.944 18.7357C331.835 19.3909 332.897 19.9171 334.127 20.3142C335.356 20.7113 336.585 20.9099 337.815 20.9099C339.183 20.9099 340.196 20.7113 340.85 20.3142C341.503 19.8972 341.831 19.3512 341.831 18.6761C341.831 18.1797 341.632 17.7727 341.236 17.455C340.859 17.1174 340.364 16.8494 339.749 16.6508C339.154 16.4523 338.339 16.2339 337.309 15.9956C335.723 15.6184 334.423 15.2411 333.412 14.8638C332.401 14.4866 331.529 13.881 330.795 13.0471C330.081 12.2131 329.724 11.1012 329.724 9.71129C329.724 8.50011 330.052 7.40805 330.705 6.43513C331.359 5.44235 332.34 4.65803 333.65 4.08223C334.979 3.50642 336.595 3.21851 338.5 3.21851C339.83 3.21851 341.127 3.37737 342.395 3.69505C343.666 4.01274 344.776 4.4694 345.729 5.06509L344.242 8.72846C342.317 7.63639 340.393 7.09036 338.468 7.09036C337.12 7.09036 336.119 7.30876 335.465 7.74559C334.831 8.18242 334.513 8.75823 334.513 9.47303C334.513 10.1878 334.88 10.7239 335.613 11.0813C336.367 11.4189 337.509 11.7564 339.035 12.094C340.621 12.4712 341.921 12.8485 342.932 13.2257C343.943 13.603 344.805 14.1987 345.52 15.0128C346.253 15.8268 346.62 16.9288 346.62 18.3187C346.62 19.5101 346.282 20.6021 345.61 21.5949C344.953 22.5678 343.962 23.3422 342.633 23.918C341.307 24.4938 339.688 24.7817 337.786 24.7817Z" fill="white"/>
<path fill-rule="evenodd" clip-rule="evenodd" d="M18.9721 25.3056L17.9351 27.1019H33.0639L32.0269 25.3056H18.9721ZM33.0639 0.898127H17.9351L18.9721 2.69438H32.0263L33.0639 0.898127ZM20.009 4.49062L14.5188 14L20.009 23.5094H30.9894L36.4795 14L30.9894 4.49062H20.009ZM17.4166 28L9.3335 14L17.4161 0H33.5817L41.665 14L33.5823 28H17.4166Z" fill="white"/>
<path fill-rule="evenodd" clip-rule="evenodd" d="M41.1465 5.91737L43.7389 1.42676L50.998 13.9999L43.7389 26.5732L41.1465 22.0825L45.8132 13.9999L41.1465 5.91737Z" fill="white"/>
<path fill-rule="evenodd" clip-rule="evenodd" d="M7.25924 26.5732L0 13.9999L7.25924 1.42676L9.85162 5.91737L5.18534 13.9999L9.85162 22.0825L7.25924 26.5732Z" fill="white"/>
</g>
<defs>
<clipPath id="clip0">
<rect width="346.621" height="28" fill="white"/>
</clipPath>
</defs>
</svg>
