<svg width="16" height="18" viewBox="0 0 16 18" fill="none" xmlns="http://www.w3.org/2000/svg">
<path fill-rule="evenodd" clip-rule="evenodd" d="M8 0C5.44205 0 3.36842 2.09686 3.36842 4.68347V6.81376C2.38743 6.82066 1.8263 6.86051 1.37939 7.09076C0.904034 7.33568 0.517558 7.72645 0.275352 8.20715C0 8.75367 0 9.46896 0 10.8997V13.795C0 15.2257 0 15.941 0.275352 16.4875C0.517558 16.9682 0.904034 17.359 1.37939 17.6039C1.9198 17.8824 2.62723 17.8824 4.04211 17.8824H11.9579C13.3728 17.8824 14.0802 17.8824 14.6206 17.6039C15.096 17.359 15.4824 16.9682 15.7246 16.4875C16 15.941 16 15.2257 16 13.795V10.8997C16 9.46896 16 8.75367 15.7246 8.20715C15.4824 7.72645 15.096 7.33568 14.6206 7.09076C14.1737 6.86051 13.6125 6.82066 12.6316 6.81376V4.68347C12.6316 2.09686 10.558 0 8 0ZM10.9474 6.81233V4.68347C10.9474 3.03745 9.62779 1.70308 8 1.70308C6.37221 1.70308 5.05263 3.03745 5.05263 4.68347V6.81233H10.9474ZM8.84211 12.971C9.34552 12.6765 9.68421 12.1262 9.68421 11.4958C9.68421 10.5552 8.93019 9.79272 8 9.79272C7.06981 9.79272 6.31579 10.5552 6.31579 11.4958C6.31579 12.1262 6.65448 12.6765 7.1579 12.971V14.4762C7.1579 14.9465 7.53491 15.3277 8 15.3277C8.4651 15.3277 8.84211 14.9465 8.84211 14.4762V12.971Z" fill="#FF575F"/>
</svg>
